<svg xmlns="http://www.w3.org/2000/svg" viewBox="196 252 808 696" fill="currentColor"><path d="M 251.9 905.7 C 248.8 901.8 244.5 899.2 239.1 897.9 L 239.1 897.3 C 243.8 896.2 247.7 893.8 250.6 890.0 C 253.6 886.3 255.0 881.9 255.0 876.7 C 255.0 872.3 254.0 868.4 251.9 864.9 C 249.8 861.4 246.6 858.7 242.5 856.6 C 238.4 854.6 233.6 853.6 227.9 853.6 C 219.5 853.6 212.6 855.7 207.3 860.1 C 202.0 864.4 199.0 870.3 198.4 878.0 L 209.5 878.0 C 210.1 873.5 212.0 869.9 215.1 867.3 C 218.3 864.6 222.4 863.3 227.5 863.3 C 232.9 863.3 236.9 864.6 239.8 867.3 C 242.7 869.9 244.1 873.5 244.1 877.8 C 244.1 883.0 242.1 886.8 238.2 889.2 C 234.3 891.7 228.6 892.9 221.0 893.0 L 218.0 893.0 L 218.0 902.5 L 220.8 902.5 C 229.2 902.5 235.5 903.8 239.6 906.6 C 243.8 909.3 245.8 913.8 245.8 920.0 C 245.8 924.8 244.3 928.7 241.3 931.8 C 238.3 934.8 233.9 936.3 228.0 936.3 C 222.2 936.3 217.6 934.7 214.1 931.6 C 210.6 928.4 208.6 924.4 208.0 919.4 L 197.1 919.4 C 197.7 927.9 200.9 934.4 206.5 939.0 C 212.2 943.6 219.4 945.9 228.2 945.9 C 234.2 945.9 239.4 944.8 243.7 942.6 C 248.0 940.5 251.3 937.5 253.4 933.8 C 255.6 930.0 256.7 925.7 256.7 921.0 C 256.7 914.7 255.1 909.6 251.9 905.7"/><path d="M 420.6 895.7 C 417.6 898.4 413.1 899.7 406.8 899.7 L 390.4 899.7 L 390.4 868.4 L 406.8 868.4 C 418.9 868.4 425.0 873.6 425.0 884.2 C 425.0 889.2 423.5 893.0 420.6 895.7 M 428.9 866.1 C 423.8 861.5 416.5 859.2 406.8 859.2 L 379.3 859.2 L 379.3 944.6 L 390.4 944.6 L 390.4 908.9 L 406.8 908.9 C 416.8 908.9 424.2 906.6 429.1 901.9 C 434.0 897.2 436.4 891.3 436.4 884.2 C 436.4 876.8 433.9 870.8 428.9 866.1"/><path d="M 473.1 858.1 C 473.0 858.5 472.9 858.9 472.8 859.2 C 472.8 859.4 472.7 859.5 472.7 859.6 C 469.2 870.5 462.9 875.5 462.5 891.0 L 462.5 944.6 L 473.7 944.6 L 473.7 863.0 C 473.7 861.4 473.8 859.8 473.8 858.2 C 473.9 857.7 473.2 857.6 473.1 858.1"/><path d="M 559.4 931.6 C 554.9 934.3 549.6 935.7 543.4 935.7 C 537.4 935.7 532.1 934.3 527.3 931.5 C 522.6 928.7 518.9 924.8 516.2 919.7 C 513.5 914.6 512.1 908.6 512.1 901.8 C 512.1 895.0 513.5 889.0 516.2 883.9 C 518.9 878.8 522.6 874.8 527.3 872.0 C 532.1 869.3 537.4 867.9 543.4 867.9 C 549.6 867.9 554.9 869.3 559.4 872.0 C 563.8 874.8 567.3 878.8 569.6 883.9 L 583.0 883.9 C 579.8 875.7 574.7 869.3 567.8 864.8 C 560.8 860.3 552.7 858.1 543.4 858.1 C 535.5 858.1 528.3 859.9 521.8 863.7 C 515.3 867.5 510.1 872.7 506.4 879.3 C 502.6 886.0 500.7 893.5 500.7 901.8 C 500.7 910.2 502.6 917.6 506.4 924.3 C 510.1 930.9 515.3 936.0 521.8 939.8 C 528.3 943.5 535.5 945.3 543.4 945.3 C 552.7 945.3 560.8 943.1 567.8 938.7 C 574.7 934.2 579.8 927.9 583.0 919.7 L 569.6 919.7 C 567.3 924.9 563.8 928.8 559.4 931.6"/><path d="M 606.5 859.2 L 606.5 868.2 L 629.9 868.2 L 629.9 944.6 L 641.1 944.6 L 641.1 868.2 L 664.4 868.2 L 664.4 859.2 Z M 606.5 859.2"/><path d="M 754.5 858.2 C 754.5 857.7 753.8 857.6 753.7 858.1 C 753.6 858.5 753.5 858.9 753.5 859.2 C 753.4 859.4 753.4 859.5 753.3 859.6 C 750.1 869.7 744.5 874.7 743.3 887.7 C 743.2 888.7 743.2 889.8 743.1 891.0 L 743.1 917.2 C 742.6 922.8 740.8 927.1 737.8 930.1 C 734.0 933.8 728.9 935.7 722.4 935.7 C 715.8 935.7 710.6 933.8 706.9 930.1 C 703.1 926.5 701.3 920.8 701.3 913.2 L 701.3 859.2 L 690.1 859.2 L 690.1 913.1 C 690.1 920.2 691.5 926.2 694.4 931.1 C 697.2 935.9 701.0 939.5 705.9 941.9 C 710.7 944.3 716.2 945.5 722.2 945.5 C 728.3 945.5 733.7 944.3 738.6 941.9 C 740.2 941.1 741.7 940.2 743.1 939.1 C 745.9 937.0 748.3 934.3 750.2 931.1 C 752.5 927.2 753.8 922.6 754.3 917.4 C 754.4 916.0 754.5 914.6 754.5 913.1 L 754.5 859.2 L 754.4 859.2 C 754.5 858.8 754.5 858.5 754.5 858.2"/><path d="M 796.5 900.7 L 796.5 868.4 L 813.0 868.4 C 819.1 868.4 823.6 869.8 826.6 872.5 C 829.6 875.3 831.1 879.2 831.1 884.3 C 831.1 889.3 829.6 893.3 826.6 896.2 C 823.5 899.2 819.0 900.7 813.0 900.7 Z M 822.3 908.8 C 829.1 907.3 834.1 904.4 837.5 899.9 C 840.9 895.4 842.6 890.2 842.6 884.3 C 842.6 879.5 841.5 875.2 839.3 871.4 C 837.1 867.7 833.8 864.7 829.3 862.5 C 824.9 860.3 819.4 859.2 813.0 859.2 L 785.4 859.2 L 785.4 944.6 L 796.5 944.6 L 796.5 909.7 L 810.0 909.7 L 830.4 944.6 L 843.7 944.6 Z M 822.3 908.8"/><path d="M 918.1 868.2 L 918.1 859.0 L 872.2 859.0 L 872.2 944.6 L 918.1 944.6 L 918.1 935.4 L 883.3 935.4 L 883.3 906.0 L 914.5 906.0 L 914.5 896.8 L 883.3 896.8 L 883.3 868.2 Z M 918.1 868.2"/><path d="M 999.2 908.5 C 996.7 905.4 993.8 903.0 990.3 901.5 C 986.9 900.0 982.4 898.5 976.7 896.9 C 972.1 895.6 968.4 894.5 965.9 893.4 C 963.3 892.4 961.1 890.9 959.4 889.0 C 957.6 887.0 956.7 884.5 956.7 881.4 C 956.7 877.0 958.2 873.7 961.2 871.2 C 964.1 868.8 967.9 867.6 972.6 867.6 C 977.5 867.6 981.5 868.9 984.6 871.4 C 987.6 873.9 989.3 876.7 989.7 880.0 L 1002.0 880.0 C 1001.3 873.4 998.4 868.1 993.3 864.1 C 988.2 860.1 981.7 858.1 973.7 858.1 C 968.1 858.1 963.2 859.0 958.9 861.0 C 954.6 863.0 951.3 865.7 948.9 869.3 C 946.5 872.9 945.3 877.1 945.3 881.7 C 945.3 887.0 946.5 891.3 949.0 894.4 C 951.4 897.6 954.3 899.9 957.7 901.3 C 961.1 902.8 965.6 904.3 971.2 905.8 C 975.8 907.0 979.4 908.1 982.1 909.2 C 984.8 910.2 987.1 911.8 988.9 913.8 C 990.7 915.9 991.6 918.5 991.6 921.8 C 991.6 926.0 990.0 929.4 987.0 932.0 C 983.9 934.7 979.7 936.0 974.4 936.0 C 968.8 936.0 964.6 934.7 961.7 931.9 C 958.8 929.2 957.1 925.8 956.7 921.8 L 944.8 921.8 C 944.9 926.5 946.2 930.6 948.8 934.1 C 951.3 937.7 954.8 940.5 959.2 942.5 C 963.7 944.5 968.8 945.5 974.4 945.5 C 980.3 945.5 985.4 944.3 989.7 942.0 C 994.0 939.7 997.3 936.8 999.5 933.1 C 1001.7 929.4 1002.8 925.5 1002.8 921.3 C 1002.8 915.9 1001.6 911.7 999.2 908.5"/><path d="M 595.5 359.0 L 598.9 332.3 C 599.5 327.8 606.0 327.8 606.5 332.3 L 609.9 359.0 C 612.9 382.5 631.3 401.0 654.8 403.9 L 681.5 407.3 C 686.0 407.9 686.0 414.4 681.5 414.9 L 654.8 418.3 C 631.3 421.3 612.9 439.7 609.9 463.2 L 606.5 489.9 C 606.0 494.4 599.5 494.4 598.9 489.9 L 595.5 463.2 C 592.6 439.7 574.1 421.3 550.6 418.3 L 523.9 414.9 C 519.4 414.4 519.4 407.9 523.9 407.3 L 550.6 403.9 C 574.1 401.0 592.6 382.5 595.5 359.0"/><path d="M 631.3 770.5 C 629.4 770.5 627.5 770.5 625.6 770.5 L 577.4 770.5 C 576.2 770.5 575.0 770.6 573.7 770.6 C 570.9 770.5 568.5 770.4 565.7 770.3 C 566.0 768.6 565.9 767.0 566.2 765.3 C 566.4 764.2 566.4 763.0 566.5 761.8 C 566.6 761.4 566.6 761.0 566.6 760.6 C 566.7 760.0 566.7 759.3 566.8 758.7 C 566.8 757.9 566.9 757.0 567.0 756.2 C 567.1 755.1 567.1 754.0 567.2 753.0 C 567.3 751.7 567.4 750.4 567.5 749.2 C 567.6 747.7 567.8 746.2 567.9 744.8 C 568.0 743.2 568.1 741.5 568.3 739.9 C 568.4 738.1 568.5 736.3 568.7 734.5 C 568.8 732.6 569.0 730.6 569.1 728.7 C 569.3 726.6 569.5 724.5 569.6 722.4 C 569.8 720.2 570.0 718.0 570.2 715.8 C 570.3 713.5 570.5 711.1 570.7 708.8 L 571.3 701.5 C 571.5 699.0 571.7 696.5 571.9 694.0 C 572.1 691.4 572.3 688.8 572.5 686.2 C 572.7 683.5 572.9 680.8 573.1 678.2 C 573.4 675.4 573.6 672.7 573.8 670.0 L 574.4 661.7 C 574.7 658.9 574.9 656.1 575.1 653.3 C 575.3 650.5 575.6 647.7 575.8 644.9 C 576.0 642.1 576.2 639.3 576.4 636.5 L 577.1 628.0 C 577.3 625.3 577.6 622.5 577.8 619.7 C 578.0 616.9 578.2 614.1 578.4 611.4 C 578.6 608.7 578.9 606.0 579.1 603.2 C 579.3 600.6 579.5 597.9 579.7 595.3 L 580.3 587.5 C 580.5 585.0 580.7 582.4 580.9 579.9 C 581.1 577.5 581.3 575.1 581.5 572.7 C 581.7 570.3 581.9 568.0 582.0 565.7 C 582.2 563.5 582.4 561.3 582.6 559.1 C 582.7 557.0 582.9 554.9 583.1 552.8 C 583.2 550.9 583.4 549.0 583.5 547.0 C 583.7 545.3 583.8 543.5 583.9 541.7 C 584.1 540.1 584.2 538.5 584.3 536.8 C 584.4 535.4 584.6 533.9 584.7 532.5 C 584.8 531.2 584.9 530.0 585.0 528.7 C 585.1 527.7 585.1 526.6 585.2 525.6 C 585.3 524.7 585.4 523.9 585.4 523.1 C 585.5 522.4 585.5 521.8 585.6 521.2 C 585.6 520.8 585.6 520.5 585.7 520.1 C 585.7 519.9 585.7 519.8 585.7 519.7 C 585.8 518.4 587.4 517.9 588.3 518.9 C 591.7 523.0 596.9 525.5 602.7 525.5 C 608.6 525.5 613.7 523.0 617.2 518.9 C 618.0 517.8 619.7 518.3 619.8 519.7 C 619.8 519.7 619.8 519.8 619.8 519.9 C 619.8 520.5 619.9 521.1 619.9 521.7 L 620.2 525.2 C 620.3 526.8 620.5 528.5 620.6 530.2 C 620.8 532.3 620.9 534.4 621.1 536.5 C 621.3 539.1 621.5 541.6 621.7 544.1 C 621.9 547.1 622.2 550.0 622.4 552.9 C 622.7 556.1 622.9 559.4 623.2 562.6 C 623.4 566.1 623.7 569.7 624.0 573.2 C 624.3 577.0 624.6 580.7 624.9 584.5 C 625.2 588.5 625.5 592.5 625.8 596.4 C 626.2 600.5 626.5 604.7 626.8 608.8 C 627.2 613.0 627.5 617.3 627.8 621.5 L 628.8 634.4 C 629.2 638.7 629.5 643.0 629.9 647.4 C 630.2 651.7 630.5 656.0 630.9 660.3 C 631.2 664.5 631.6 668.7 631.9 673.0 C 632.2 677.1 632.5 681.2 632.9 685.3 C 633.2 689.3 633.5 693.3 633.8 697.2 C 634.1 701.0 634.4 704.8 634.7 708.6 C 635.0 712.1 635.3 715.6 635.5 719.2 L 636.3 728.9 C 636.5 731.8 636.8 734.7 637.0 737.7 C 637.2 740.2 637.4 742.7 637.6 745.3 L 638.1 751.7 C 638.2 753.3 638.4 755.0 638.5 756.7 C 638.6 757.8 638.7 759.0 638.8 760.1 C 639.1 763.6 639.7 767.0 640.2 770.4 C 637.2 770.4 634.3 770.4 631.3 770.5"/><path d="M 537.3 465.7 L 527.6 465.7 C 527.1 465.7 526.6 465.9 526.3 466.4 L 462.1 547.7 C 461.8 548.1 461.3 548.4 460.8 548.4 L 426.6 548.4 C 426.1 548.4 425.7 548.6 425.3 548.9 L 404.6 572.2 C 388.3 590.7 371.9 609.1 355.5 627.6 C 336.1 649.4 316.7 671.2 297.3 693.1 C 282.4 709.8 267.6 726.5 252.7 743.2 C 244.8 752.1 235.9 762.3 227.8 771.1 C 252.0 771.1 274.2 771.4 298.5 771.4 C 299.3 771.4 302.6 765.8 303.1 765 C 303.4 764.6 303.5 764.1 303.8 763.7 C 304.1 763.2 304.6 762.6 305.0 762.1 C 306.2 760.3 307.4 758.6 308.6 756.9 L 320.4 740.3 C 325.8 732.6 331.2 725.0 336.6 717.3 C 343.0 708.3 349.3 699.4 355.7 690.4 L 375.7 662.0 C 382.2 652.9 388.7 643.7 395.2 634.6 C 400.9 626.5 406.5 618.5 412.2 610.4 C 416.6 604.3 420.9 598.2 425.2 592.1 C 427.6 588.7 430.0 585.3 432.4 581.9 C 432.7 581.5 433.0 581.1 433.3 580.7 C 433.6 580.2 434.1 580 434.7 580 L 476.3 580 C 477.0 580 477.5 579.6 477.8 579.1 L 538.8 468.2 C 539.4 467.1 538.6 465.7 537.3 465.7"/><path d="M 668.2 465.7 L 677.8 465.7 C 678.4 465.7 678.9 465.9 679.2 466.4 L 743.4 547.7 C 743.7 548.1 744.2 548.4 744.7 548.4 L 778.8 548.4 C 779.3 548.4 779.8 548.6 780.1 548.9 L 800.8 572.2 C 817.2 590.7 833.6 609.1 850.0 627.6 C 869.4 649.4 888.8 671.2 908.2 693.1 C 924.2 711.1 940.1 729.1 956.1 747.0 C 959.5 750.9 963.0 754.7 966.6 758.4 C 968.6 760.5 970.6 762.5 972.6 764.5 C 973.6 765.6 974.7 766.5 975.6 767.6 C 977.7 770.2 979.6 772.1 979.6 772.1 C 979.6 772.1 975.4 772.2 973.3 772.2 C 967.9 772.3 962.5 772.3 957.1 772.2 C 951.7 772.2 946.3 772.1 940.9 772.0 C 935.5 772.0 930.1 771.9 924.7 771.9 C 919.4 772.0 914.2 772.0 908.9 772.1 C 908.3 772.1 907.5 772.1 907.0 771.8 C 906.7 771.5 906.5 771.2 906.2 770.9 C 905.3 769.4 904.3 767.9 903.3 766.4 C 902.9 765.7 902.5 765.1 902.0 764.4 C 901.7 764.0 901.5 763.5 901.1 763.0 C 899.3 760.4 897.4 757.8 895.6 755.2 C 892.6 750.9 889.6 746.7 886.6 742.5 C 882.7 737.0 878.8 731.5 874.9 726.0 C 870.4 719.6 865.9 713.2 861.3 706.7 C 856.4 699.8 851.5 692.8 846.5 685.8 L 831.3 664.3 C 826.3 657.2 821.3 650.2 816.3 643.1 C 811.7 636.6 807.1 630.0 802.4 623.4 C 798.4 617.7 794.3 612.0 790.3 606.3 C 787.1 601.8 783.9 597.3 780.7 592.8 C 778.6 589.8 776.5 586.8 774.4 583.9 C 773.7 582.8 772.9 581.7 772.2 580.7 C 771.8 580.2 771.3 580 770.8 580 L 729.1 580 C 728.5 580 727.9 579.6 727.6 579.1 L 666.7 468.2 C 666.1 467.1 666.9 465.7 668.2 465.7"/><path d="M 976.3 644.1 C 973.8 644.0 971.2 644.0 968.6 643.9 C 968.4 640.3 968.2 636.7 967.7 633.1 C 966.7 625.0 965.4 617 963.9 608.9 C 962.5 601.0 960.8 593.2 958.9 585.4 C 957.0 577.6 954.8 570.0 952.5 562.4 C 950.2 554.8 947.6 547.4 944.9 540.0 C 942.2 532.7 939.2 525.5 936.1 518.3 C 933.0 511.2 929.7 504.2 926.2 497.3 C 922.7 490.5 919.0 483.8 915.1 477.1 C 911.3 470.5 907.2 464.1 903.0 457.7 C 898.8 451.4 894.5 445.2 889.9 439.2 C 885.4 433.1 880.7 427.2 875.8 421.5 C 871.0 415.8 866.0 410.2 860.8 404.7 C 855.7 399.3 850.4 394.1 845.0 389.0 C 839.5 383.9 834.0 379.0 828.2 374.2 C 822.6 369.5 816.7 364.9 810.8 360.5 C 804.8 356.2 798.7 352.0 792.5 347.9 C 786.3 343.9 780.0 340.1 773.6 336.5 C 767.2 332.9 760.7 329.5 754.0 326.2 C 747.4 323.0 740.7 320.0 733.8 317.2 C 727.0 314.4 720.1 311.8 713.1 309.5 C 706.1 307.1 699.0 304.9 691.9 303.0 C 684.7 301.1 677.4 299.4 670.1 297.9 C 662.8 296.5 655.4 295.2 648.0 294.3 C 640.5 293.3 633.0 292.5 625.5 292.0 C 617.9 291.5 610.3 291.3 602.7 291.3 C 599.7 291.3 596.6 291.3 593.6 291.4 C 582.2 291.7 570.9 292.6 559.6 294.0 C 548.5 295.4 537.4 297.3 526.5 299.8 C 515.7 302.3 504.9 305.3 494.4 308.8 C 483.9 312.3 473.5 316.2 463.4 320.7 C 453.3 325.1 443.4 330.1 433.7 335.4 C 424.0 340.8 414.6 346.6 405.5 352.9 C 396.3 359.1 387.4 365.8 378.9 372.8 C 370.2 379.9 361.9 387.4 354.0 395.2 C 346.0 403.1 338.3 411.3 331.0 419.8 C 323.7 428.4 316.7 437.3 310.1 446.5 C 303.5 455.8 297.3 465.4 291.5 475.2 C 285.6 485.1 280.1 495.3 275.1 505.7 C 270.1 516.2 265.5 526.9 261.4 537.9 C 257.2 548.9 253.5 560.2 250.2 571.6 C 247.0 583.1 244.2 594.8 241.9 606.6 C 239.5 619.3 237.7 632.1 236.4 644.9 L 206.3 644.8 C 208.2 633.7 209.5 622.5 211.3 611.4 C 213.2 599.4 215.6 587.5 218.5 575.7 C 221.3 564.0 224.5 552.5 228.2 541.2 C 231.9 530.0 236.0 518.9 240.5 508.0 C 244.9 497.3 249.8 486.7 255.1 476.4 C 260.3 466.1 265.9 456.1 271.9 446.3 C 277.9 436.6 284.2 427.1 290.9 417.9 C 297.5 408.8 304.5 400 311.8 391.4 C 319.1 382.9 326.7 374.7 334.6 366.8 C 342.5 359.0 350.7 351.5 359.2 344.3 C 367.6 337.2 376.3 330.4 385.3 324.0 C 394.3 317.6 403.5 311.6 412.9 306.0 C 422.4 300.4 432.1 295.2 441.9 290.5 C 451.8 285.7 461.9 281.4 472.2 277.5 C 482.4 273.6 492.9 270.1 503.5 267.2 C 514.1 264.2 524.9 261.7 535.8 259.6 C 546.8 257.6 557.9 256.1 569.0 255.1 C 580.2 254.0 591.5 253.5 602.7 253.5 C 608.5 253.5 614.4 253.6 620.2 253.9 C 627.7 254.3 635.2 254.9 642.6 255.7 C 650.0 256.5 657.4 257.5 664.7 258.8 C 672.0 260.0 679.3 261.5 686.5 263.2 C 693.6 264.8 700.7 266.7 707.8 268.8 C 714.8 270.9 721.7 273.2 728.6 275.7 C 735.5 278.2 742.3 280.9 749.0 283.8 C 755.7 286.7 762.4 289.8 768.9 293.1 C 775.4 296.4 781.9 299.8 788.2 303.5 C 794.5 307.1 800.8 311.0 806.9 315.0 C 813.0 319.0 819.1 323.2 825.0 327.5 C 830.9 331.9 836.7 336.4 842.4 341.1 C 848.1 345.8 853.7 350.6 859.1 355.6 C 864.5 360.6 869.9 365.8 875.0 371.1 C 880.3 376.4 885.3 381.9 890.2 387.5 C 895.2 393.1 900.0 398.9 904.6 404.8 C 909.2 410.7 913.8 416.7 918.1 422.9 C 922.5 429.1 926.7 435.4 930.7 441.8 C 934.8 448.2 938.7 454.8 942.4 461.5 C 946.1 468.2 949.7 475.0 953.1 481.9 C 956.5 488.8 959.8 495.9 962.8 503.0 C 965.9 510.2 968.8 517.4 971.5 524.8 C 974.2 532.2 976.8 539.6 979.1 547.2 C 981.5 554.8 983.6 562.5 985.6 570.2 C 987.6 578.0 989.4 585.8 990.9 593.7 C 992.5 601.7 993.9 609.7 995.1 617.8 C 995.7 621.8 996.2 625.9 996.7 630.0 C 997.0 632.1 997.1 634.1 997.7 636.1 C 997.8 636.8 999 643.8 998.4 643.8 C 991.0 644.1 983.7 644.1 976.3 644.1"/><path d="M 317.3 854.0 C 317.3 853.5 316.6 853.4 316.5 853.9 C 316.3 854.7 316.1 855.4 316.0 855.6 C 315.9 856.1 315.7 856.7 315.5 857.2 C 311.8 867.7 305.8 873.3 305.0 888.1 C 305.0 889.2 304.9 890.4 304.9 891.6 C 304.9 904.5 304.9 907.5 304.8 920.5 C 304.8 922.6 304.7 924.6 304.6 926.4 C 304.1 928.6 303.2 930.6 301.8 932.3 C 299.7 934.8 296.5 936.1 292.2 936.1 C 287.9 936.1 284.7 934.8 282.5 932.1 C 280.4 929.4 279.3 925.9 279.2 921.6 L 267.6 921.6 C 267.6 929.3 269.9 935.3 274.4 939.7 C 278.2 943.6 283.2 945.8 289.3 946.3 C 290.3 946.3 291.2 946.4 292.2 946.4 C 293.6 946.4 294.9 946.3 296.1 946.2 C 301.7 945.5 306.3 943.4 310.0 939.9 C 314.3 935.7 316.5 930.1 316.6 923.2 C 316.7 922.5 316.8 921.8 316.8 921.0 C 317.5 895.7 316.1 879.3 317.3 854.0"/></svg>
